<mxfile host="app.diagrams.net" agent="Mozilla/5.0 (Windows NT 10.0; Win64; x64) AppleWebKit/537.36 (KHTML, like Gecko) Chrome/137.0.0.0 Safari/537.36" version="27.1.4">
  <diagram name="ページ1" id="qnzjnALU6PWHt6pJhjK8">
    <mxGraphModel dx="2560" dy="2502" grid="0" gridSize="10" guides="1" tooltips="1" connect="1" arrows="1" fold="1" page="1" pageScale="1" pageWidth="827" pageHeight="1169" math="0" shadow="0">
      <root>
        <mxCell id="0" />
        <mxCell id="1" parent="0" />
        <mxCell id="RypAzTI1GGBVqlFzvrsD-68" value="" style="rounded=0;whiteSpace=wrap;html=1;" parent="1" vertex="1">
          <mxGeometry x="15" y="-46" width="1092" height="1140" as="geometry" />
        </mxCell>
        <mxCell id="RypAzTI1GGBVqlFzvrsD-28" value="" style="rounded=1;whiteSpace=wrap;html=1;fillColor=none;dashed=1;gradientColor=#ffa500;strokeColor=light-dark(#DD344C,#FF3333);" parent="1" vertex="1">
          <mxGeometry x="304.5" y="257" width="238" height="211" as="geometry" />
        </mxCell>
        <mxCell id="RypAzTI1GGBVqlFzvrsD-40" value="" style="rounded=1;whiteSpace=wrap;html=1;fillColor=none;dashed=1;gradientColor=none;strokeColor=light-dark(#DD344C,#007FFF);fontColor=none;noLabel=1;" parent="1" vertex="1">
          <mxGeometry x="566" y="257" width="329" height="211" as="geometry" />
        </mxCell>
        <mxCell id="RypAzTI1GGBVqlFzvrsD-5" value="" style="endArrow=classic;html=1;rounded=0;" parent="1" source="RypAzTI1GGBVqlFzvrsD-1" target="RypAzTI1GGBVqlFzvrsD-2" edge="1">
          <mxGeometry width="50" height="50" relative="1" as="geometry">
            <mxPoint x="135" y="402" as="sourcePoint" />
            <mxPoint x="185" y="352" as="targetPoint" />
          </mxGeometry>
        </mxCell>
        <mxCell id="RypAzTI1GGBVqlFzvrsD-8" value="" style="group" parent="1" vertex="1" connectable="0">
          <mxGeometry x="45" y="332" width="69" height="112" as="geometry" />
        </mxCell>
        <mxCell id="RypAzTI1GGBVqlFzvrsD-1" value="" style="shape=mxgraph.cisco.people.androgenous_person;html=1;pointerEvents=1;dashed=0;fillColor=#036897;strokeColor=#ffffff;strokeWidth=2;verticalLabelPosition=bottom;verticalAlign=top;align=center;outlineConnect=0;" parent="RypAzTI1GGBVqlFzvrsD-8" vertex="1">
          <mxGeometry width="69" height="82" as="geometry" />
        </mxCell>
        <mxCell id="RypAzTI1GGBVqlFzvrsD-7" value="開発者" style="text;html=1;align=center;verticalAlign=middle;whiteSpace=wrap;rounded=0;" parent="RypAzTI1GGBVqlFzvrsD-8" vertex="1">
          <mxGeometry x="4.5" y="82" width="60" height="30" as="geometry" />
        </mxCell>
        <mxCell id="RypAzTI1GGBVqlFzvrsD-10" value="" style="group" parent="1" vertex="1" connectable="0">
          <mxGeometry x="185" y="339" width="68" height="98" as="geometry" />
        </mxCell>
        <mxCell id="RypAzTI1GGBVqlFzvrsD-2" value="" style="shape=image;html=1;verticalAlign=top;verticalLabelPosition=bottom;labelBackgroundColor=#ffffff;imageAspect=0;aspect=fixed;image=https://cdn4.iconfinder.com/data/icons/miu-black-social-2/60/github-128.png" parent="RypAzTI1GGBVqlFzvrsD-10" vertex="1">
          <mxGeometry width="68" height="68" as="geometry" />
        </mxCell>
        <mxCell id="RypAzTI1GGBVqlFzvrsD-9" value="Github" style="text;html=1;align=center;verticalAlign=middle;whiteSpace=wrap;rounded=0;" parent="RypAzTI1GGBVqlFzvrsD-10" vertex="1">
          <mxGeometry x="4" y="68" width="60" height="30" as="geometry" />
        </mxCell>
        <mxCell id="RypAzTI1GGBVqlFzvrsD-11" value="" style="endArrow=classic;html=1;rounded=0;" parent="1" source="RypAzTI1GGBVqlFzvrsD-2" target="RypAzTI1GGBVqlFzvrsD-4" edge="1">
          <mxGeometry width="50" height="50" relative="1" as="geometry">
            <mxPoint x="299" y="373" as="sourcePoint" />
            <mxPoint x="349" y="323" as="targetPoint" />
          </mxGeometry>
        </mxCell>
        <mxCell id="RypAzTI1GGBVqlFzvrsD-12" value="Push / PR" style="text;html=1;align=center;verticalAlign=middle;whiteSpace=wrap;rounded=0;" parent="1" vertex="1">
          <mxGeometry x="120" y="377" width="60" height="30" as="geometry" />
        </mxCell>
        <mxCell id="RypAzTI1GGBVqlFzvrsD-13" value="Deploy" style="text;html=1;align=center;verticalAlign=middle;whiteSpace=wrap;rounded=0;" parent="1" vertex="1">
          <mxGeometry x="281" y="375" width="60" height="30" as="geometry" />
        </mxCell>
        <mxCell id="RypAzTI1GGBVqlFzvrsD-15" value="" style="group" parent="1" vertex="1" connectable="0">
          <mxGeometry x="357" y="337" width="70" height="100" as="geometry" />
        </mxCell>
        <mxCell id="RypAzTI1GGBVqlFzvrsD-4" value="" style="sketch=0;points=[[0,0,0],[0.25,0,0],[0.5,0,0],[0.75,0,0],[1,0,0],[0,1,0],[0.25,1,0],[0.5,1,0],[0.75,1,0],[1,1,0],[0,0.25,0],[0,0.5,0],[0,0.75,0],[1,0.25,0],[1,0.5,0],[1,0.75,0]];outlineConnect=0;fontColor=#232F3E;fillColor=light-dark(#DD344C,#E8393D);strokeColor=light-dark(#FFFFFF,#121111);dashed=0;verticalLabelPosition=bottom;verticalAlign=top;align=center;html=1;fontSize=12;fontStyle=0;aspect=fixed;shape=mxgraph.aws4.resourceIcon;resIcon=mxgraph.aws4.amplify;" parent="RypAzTI1GGBVqlFzvrsD-15" vertex="1">
          <mxGeometry width="70" height="70" as="geometry" />
        </mxCell>
        <mxCell id="RypAzTI1GGBVqlFzvrsD-14" value="AWS Amplify" style="text;html=1;align=center;verticalAlign=middle;whiteSpace=wrap;rounded=0;" parent="RypAzTI1GGBVqlFzvrsD-15" vertex="1">
          <mxGeometry y="70" width="70" height="30" as="geometry" />
        </mxCell>
        <mxCell id="RypAzTI1GGBVqlFzvrsD-17" value="" style="shape=image;verticalLabelPosition=bottom;labelBackgroundColor=default;verticalAlign=top;aspect=fixed;imageAspect=0;editableCssRules=.*;image=data:image/svg+xml,PHN2ZyB4bWxucz0iaHR0cDovL3d3dy53My5vcmcvMjAwMC9zdmciIHdpZHRoPSIyNTYiIHZpZXdCb3g9IjAgMCAyNTYgMjIwLjgwMDAwMzA1MTc1NzgiIHByZXNlcnZlQXNwZWN0UmF0aW89InhNaWRZTWlkIiBoZWlnaHQ9IjIyMC44MDAwMDMwNTE3NTc4Ij48cGF0aCBmaWxsPSIjNDFiODgzIiBkPSJtMjA0LjggMGg1MS4ybC0xMjggMjIwLjgtMTI4LTIyMC44aDUwLjU2IDQ3LjM2bDMwLjA4IDUxLjIgMjkuNDQtNTEuMnoiLz48cGF0aCBmaWxsPSIjNDFiODgzIiBkPSJtMCAwIDEyOCAyMjAuOCAxMjgtMjIwLjhoLTUxLjJsLTc2LjggMTMyLjQ4LTc3LjQ0LTEzMi40OHoiLz48cGF0aCBmaWxsPSIjMzU0OTVlIiBkPSJtNTAuNTYgMCA3Ny40NCAxMzMuMTIgNzYuOC0xMzMuMTJoLTQ3LjM2bC0yOS40NCA1MS4yLTMwLjA4LTUxLjJ6Ii8+PC9zdmc+;" parent="1" vertex="1">
          <mxGeometry x="442.81" y="340" width="67.19" height="58" as="geometry" />
        </mxCell>
        <mxCell id="RypAzTI1GGBVqlFzvrsD-23" value="Vue.js" style="text;html=1;align=center;verticalAlign=middle;whiteSpace=wrap;rounded=0;" parent="1" vertex="1">
          <mxGeometry x="446.4" y="405" width="60" height="30" as="geometry" />
        </mxCell>
        <mxCell id="RypAzTI1GGBVqlFzvrsD-24" value="" style="endArrow=classic;html=1;rounded=0;exitX=0.993;exitY=0.164;exitDx=0;exitDy=0;exitPerimeter=0;startArrow=classicThin;startFill=1;" parent="1" edge="1">
          <mxGeometry width="50" height="50" relative="1" as="geometry">
            <mxPoint x="507.999" y="371.98" as="sourcePoint" />
            <mxPoint x="589" y="372" as="targetPoint" />
          </mxGeometry>
        </mxCell>
        <mxCell id="RypAzTI1GGBVqlFzvrsD-25" value="Amazon API Gateway" style="sketch=0;outlineConnect=0;fontColor=#232F3E;gradientColor=none;strokeColor=#ffffff;fillColor=#8C4FFF;dashed=0;verticalLabelPosition=middle;verticalAlign=bottom;align=center;html=1;whiteSpace=wrap;fontSize=10;fontStyle=1;spacing=3;shape=mxgraph.aws4.productIcon;prIcon=mxgraph.aws4.api_gateway;" parent="1" vertex="1">
          <mxGeometry x="589" y="331" width="72" height="108" as="geometry" />
        </mxCell>
        <mxCell id="RypAzTI1GGBVqlFzvrsD-26" value="REST　API" style="text;html=1;align=center;verticalAlign=middle;whiteSpace=wrap;rounded=0;" parent="1" vertex="1">
          <mxGeometry x="517" y="374" width="60" height="30" as="geometry" />
        </mxCell>
        <mxCell id="RypAzTI1GGBVqlFzvrsD-27" value="" style="endArrow=classic;html=1;rounded=0;startArrow=classic;startFill=1;" parent="1" edge="1">
          <mxGeometry width="50" height="50" relative="1" as="geometry">
            <mxPoint x="661" y="373" as="sourcePoint" />
            <mxPoint x="723" y="373" as="targetPoint" />
          </mxGeometry>
        </mxCell>
        <mxCell id="RypAzTI1GGBVqlFzvrsD-29" value="フロントエンド" style="text;html=1;align=center;verticalAlign=middle;whiteSpace=wrap;rounded=0;fontColor=light-dark(#000000,#FF3333);" parent="1" vertex="1">
          <mxGeometry x="369" y="275" width="99" height="30" as="geometry" />
        </mxCell>
        <mxCell id="RypAzTI1GGBVqlFzvrsD-32" value="" style="group" parent="1" vertex="1" connectable="0">
          <mxGeometry x="723" y="332" width="70" height="102" as="geometry" />
        </mxCell>
        <mxCell id="RypAzTI1GGBVqlFzvrsD-30" value="" style="sketch=0;points=[[0,0,0],[0.25,0,0],[0.5,0,0],[0.75,0,0],[1,0,0],[0,1,0],[0.25,1,0],[0.5,1,0],[0.75,1,0],[1,1,0],[0,0.25,0],[0,0.5,0],[0,0.75,0],[1,0.25,0],[1,0.5,0],[1,0.75,0]];outlineConnect=0;fontColor=#232F3E;fillColor=#ED7100;strokeColor=#ffffff;dashed=0;verticalLabelPosition=bottom;verticalAlign=top;align=center;html=1;fontSize=12;fontStyle=0;aspect=fixed;shape=mxgraph.aws4.resourceIcon;resIcon=mxgraph.aws4.lambda;" parent="RypAzTI1GGBVqlFzvrsD-32" vertex="1">
          <mxGeometry width="70" height="70" as="geometry" />
        </mxCell>
        <mxCell id="RypAzTI1GGBVqlFzvrsD-31" value="AWS Lambda" style="text;html=1;align=center;verticalAlign=middle;whiteSpace=wrap;rounded=0;" parent="RypAzTI1GGBVqlFzvrsD-32" vertex="1">
          <mxGeometry x="5" y="72" width="60" height="30" as="geometry" />
        </mxCell>
        <mxCell id="RypAzTI1GGBVqlFzvrsD-34" value="トリガー" style="text;html=1;align=center;verticalAlign=middle;whiteSpace=wrap;rounded=0;" parent="1" vertex="1">
          <mxGeometry x="661" y="374" width="60" height="30" as="geometry" />
        </mxCell>
        <mxCell id="RypAzTI1GGBVqlFzvrsD-38" value="" style="group" parent="1" vertex="1" connectable="0">
          <mxGeometry x="643" y="107" width="71" height="101" as="geometry" />
        </mxCell>
        <mxCell id="RypAzTI1GGBVqlFzvrsD-36" value="" style="sketch=0;points=[[0,0,0],[0.25,0,0],[0.5,0,0],[0.75,0,0],[1,0,0],[0,1,0],[0.25,1,0],[0.5,1,0],[0.75,1,0],[1,1,0],[0,0.25,0],[0,0.5,0],[0,0.75,0],[1,0.25,0],[1,0.5,0],[1,0.75,0]];outlineConnect=0;fontColor=#232F3E;fillColor=#7AA116;strokeColor=#ffffff;dashed=0;verticalLabelPosition=bottom;verticalAlign=top;align=center;html=1;fontSize=12;fontStyle=0;aspect=fixed;shape=mxgraph.aws4.resourceIcon;resIcon=mxgraph.aws4.s3;" parent="RypAzTI1GGBVqlFzvrsD-38" vertex="1">
          <mxGeometry width="71" height="71" as="geometry" />
        </mxCell>
        <mxCell id="RypAzTI1GGBVqlFzvrsD-37" value="AWS S3" style="text;html=1;align=center;verticalAlign=middle;whiteSpace=wrap;rounded=0;" parent="RypAzTI1GGBVqlFzvrsD-38" vertex="1">
          <mxGeometry x="5.5" y="71" width="60" height="30" as="geometry" />
        </mxCell>
        <mxCell id="RypAzTI1GGBVqlFzvrsD-39" value="" style="endArrow=classic;html=1;rounded=0;exitX=0.5;exitY=1;exitDx=0;exitDy=0;entryX=0.5;entryY=0;entryDx=0;entryDy=0;entryPerimeter=0;" parent="1" source="RypAzTI1GGBVqlFzvrsD-37" target="RypAzTI1GGBVqlFzvrsD-30" edge="1">
          <mxGeometry width="50" height="50" relative="1" as="geometry">
            <mxPoint x="850" y="251" as="sourcePoint" />
            <mxPoint x="900" y="201" as="targetPoint" />
          </mxGeometry>
        </mxCell>
        <mxCell id="RypAzTI1GGBVqlFzvrsD-41" value="バックエンドエンド" style="text;html=1;align=center;verticalAlign=middle;whiteSpace=wrap;rounded=0;fontColor=light-dark(#000000,#3399FF);" parent="1" vertex="1">
          <mxGeometry x="586" y="269" width="110" height="30" as="geometry" />
        </mxCell>
        <mxCell id="RypAzTI1GGBVqlFzvrsD-43" value="" style="shape=mxgraph.signs.animals.snake;html=1;pointerEvents=1;fillColor=#000000;strokeColor=none;verticalLabelPosition=bottom;verticalAlign=top;align=center;" parent="1" vertex="1">
          <mxGeometry x="812" y="339" width="60" height="60" as="geometry" />
        </mxCell>
        <mxCell id="RypAzTI1GGBVqlFzvrsD-44" value="Python" style="text;html=1;align=center;verticalAlign=middle;whiteSpace=wrap;rounded=0;" parent="1" vertex="1">
          <mxGeometry x="812" y="409" width="60" height="30" as="geometry" />
        </mxCell>
        <mxCell id="RypAzTI1GGBVqlFzvrsD-45" value="" style="strokeWidth=2;html=1;shape=mxgraph.flowchart.database;whiteSpace=wrap;" parent="1" vertex="1">
          <mxGeometry x="717" y="211" width="35" height="40" as="geometry" />
        </mxCell>
        <mxCell id="RypAzTI1GGBVqlFzvrsD-47" value="SQLite&lt;div&gt;ダウンロード&lt;/div&gt;" style="text;html=1;align=center;verticalAlign=middle;whiteSpace=wrap;rounded=0;" parent="1" vertex="1">
          <mxGeometry x="696" y="255" width="88" height="30" as="geometry" />
        </mxCell>
        <mxCell id="RypAzTI1GGBVqlFzvrsD-48" value="" style="group" parent="1" vertex="1" connectable="0">
          <mxGeometry x="177" y="108.5" width="68" height="98" as="geometry" />
        </mxCell>
        <mxCell id="RypAzTI1GGBVqlFzvrsD-49" value="" style="shape=image;html=1;verticalAlign=top;verticalLabelPosition=bottom;labelBackgroundColor=#ffffff;imageAspect=0;aspect=fixed;image=https://cdn4.iconfinder.com/data/icons/miu-black-social-2/60/github-128.png" parent="RypAzTI1GGBVqlFzvrsD-48" vertex="1">
          <mxGeometry width="68" height="68" as="geometry" />
        </mxCell>
        <mxCell id="RypAzTI1GGBVqlFzvrsD-50" value="GitHub Actions" style="text;html=1;align=center;verticalAlign=middle;whiteSpace=wrap;rounded=0;" parent="RypAzTI1GGBVqlFzvrsD-48" vertex="1">
          <mxGeometry x="4" y="68" width="60" height="30" as="geometry" />
        </mxCell>
        <mxCell id="RypAzTI1GGBVqlFzvrsD-51" value="" style="group" parent="1" vertex="1" connectable="0">
          <mxGeometry x="44" y="102" width="69" height="112" as="geometry" />
        </mxCell>
        <mxCell id="RypAzTI1GGBVqlFzvrsD-52" value="" style="shape=mxgraph.cisco.people.androgenous_person;html=1;pointerEvents=1;dashed=0;fillColor=#036897;strokeColor=#ffffff;strokeWidth=2;verticalLabelPosition=bottom;verticalAlign=top;align=center;outlineConnect=0;" parent="RypAzTI1GGBVqlFzvrsD-51" vertex="1">
          <mxGeometry width="69" height="82" as="geometry" />
        </mxCell>
        <mxCell id="RypAzTI1GGBVqlFzvrsD-53" value="開発者" style="text;html=1;align=center;verticalAlign=middle;whiteSpace=wrap;rounded=0;" parent="RypAzTI1GGBVqlFzvrsD-51" vertex="1">
          <mxGeometry x="4.5" y="82" width="60" height="30" as="geometry" />
        </mxCell>
        <mxCell id="RypAzTI1GGBVqlFzvrsD-54" value="" style="endArrow=classic;html=1;rounded=0;" parent="1" source="RypAzTI1GGBVqlFzvrsD-52" target="RypAzTI1GGBVqlFzvrsD-49" edge="1">
          <mxGeometry width="50" height="50" relative="1" as="geometry">
            <mxPoint x="113" y="146" as="sourcePoint" />
            <mxPoint x="184" y="146" as="targetPoint" />
          </mxGeometry>
        </mxCell>
        <mxCell id="RypAzTI1GGBVqlFzvrsD-56" value="Push / PR" style="text;html=1;align=center;verticalAlign=middle;whiteSpace=wrap;rounded=0;" parent="1" vertex="1">
          <mxGeometry x="119" y="146" width="60" height="30" as="geometry" />
        </mxCell>
        <mxCell id="RypAzTI1GGBVqlFzvrsD-57" value="" style="endArrow=classic;html=1;rounded=0;exitX=1;exitY=0.5;exitDx=0;exitDy=0;" parent="1" source="RypAzTI1GGBVqlFzvrsD-49" target="RypAzTI1GGBVqlFzvrsD-36" edge="1">
          <mxGeometry width="50" height="50" relative="1" as="geometry">
            <mxPoint x="330" y="129" as="sourcePoint" />
            <mxPoint x="380" y="79" as="targetPoint" />
          </mxGeometry>
        </mxCell>
        <mxCell id="RypAzTI1GGBVqlFzvrsD-58" value="" style="strokeWidth=2;html=1;shape=mxgraph.flowchart.database;whiteSpace=wrap;" parent="1" vertex="1">
          <mxGeometry x="363" y="79" width="35" height="40" as="geometry" />
        </mxCell>
        <mxCell id="RypAzTI1GGBVqlFzvrsD-59" value="SQLite&amp;nbsp;&lt;span style=&quot;background-color: transparent; color: light-dark(rgb(0, 0, 0), rgb(255, 255, 255));&quot;&gt;アップロード&lt;/span&gt;" style="text;html=1;align=center;verticalAlign=middle;whiteSpace=wrap;rounded=0;" parent="1" vertex="1">
          <mxGeometry x="301" y="115" width="172" height="31" as="geometry" />
        </mxCell>
        <mxCell id="RypAzTI1GGBVqlFzvrsD-61" value="" style="endArrow=classic;html=1;rounded=0;exitX=0.5;exitY=0;exitDx=0;exitDy=0;exitPerimeter=0;entryX=0.5;entryY=1;entryDx=0;entryDy=0;" parent="1" source="RypAzTI1GGBVqlFzvrsD-30" target="RypAzTI1GGBVqlFzvrsD-63" edge="1">
          <mxGeometry width="50" height="50" relative="1" as="geometry">
            <mxPoint x="989" y="259" as="sourcePoint" />
            <mxPoint x="851" y="213" as="targetPoint" />
          </mxGeometry>
        </mxCell>
        <mxCell id="RypAzTI1GGBVqlFzvrsD-62" value="更新系" style="text;html=1;align=center;verticalAlign=middle;whiteSpace=wrap;rounded=0;" parent="1" vertex="1">
          <mxGeometry x="827" y="234" width="60" height="30" as="geometry" />
        </mxCell>
        <mxCell id="RypAzTI1GGBVqlFzvrsD-64" value="" style="group" parent="1" vertex="1" connectable="0">
          <mxGeometry x="835.44" y="102" width="60" height="101" as="geometry" />
        </mxCell>
        <mxCell id="RypAzTI1GGBVqlFzvrsD-60" value="" style="outlineConnect=0;dashed=0;verticalLabelPosition=bottom;verticalAlign=top;align=center;html=1;shape=mxgraph.aws3.dynamo_db;fillColor=#2E73B8;gradientColor=none;" parent="RypAzTI1GGBVqlFzvrsD-64" vertex="1">
          <mxGeometry width="59.56" height="67" as="geometry" />
        </mxCell>
        <mxCell id="RypAzTI1GGBVqlFzvrsD-63" value="&lt;div&gt;AWS&lt;/div&gt;DynamoDB" style="text;html=1;align=center;verticalAlign=middle;whiteSpace=wrap;rounded=0;" parent="RypAzTI1GGBVqlFzvrsD-64" vertex="1">
          <mxGeometry y="71" width="60" height="30" as="geometry" />
        </mxCell>
        <mxCell id="RypAzTI1GGBVqlFzvrsD-67" value="" style="group" parent="1" vertex="1" connectable="0">
          <mxGeometry x="262" width="763" height="1044.55" as="geometry" />
        </mxCell>
        <mxCell id="RypAzTI1GGBVqlFzvrsD-65" value="" style="rounded=0;whiteSpace=wrap;html=1;fillColor=none;" parent="RypAzTI1GGBVqlFzvrsD-67" vertex="1">
          <mxGeometry width="763" height="722" as="geometry" />
        </mxCell>
        <mxCell id="RypAzTI1GGBVqlFzvrsD-66" value="" style="outlineConnect=0;dashed=0;verticalLabelPosition=bottom;verticalAlign=top;align=center;html=1;shape=mxgraph.aws3.cloud_2;fillColor=#F58534;gradientColor=none;" parent="RypAzTI1GGBVqlFzvrsD-67" vertex="1">
          <mxGeometry width="56" height="51.29159212880143" as="geometry" />
        </mxCell>
        <mxCell id="c-izNFsfGQeIOeLridTj-11" value="" style="endArrow=classic;html=1;rounded=0;exitX=0.647;exitY=0.852;exitDx=0;exitDy=0;exitPerimeter=0;" parent="RypAzTI1GGBVqlFzvrsD-67" edge="1">
          <mxGeometry width="50" height="50" relative="1" as="geometry">
            <mxPoint x="493.00100000000003" y="441.00199999999995" as="sourcePoint" />
            <mxPoint x="519" y="789" as="targetPoint" />
          </mxGeometry>
        </mxCell>
        <mxCell id="c-izNFsfGQeIOeLridTj-26" value="" style="endArrow=classic;html=1;rounded=0;exitX=0.647;exitY=0.852;exitDx=0;exitDy=0;exitPerimeter=0;" parent="RypAzTI1GGBVqlFzvrsD-67" target="MBX3HaWTPkMvfYFKgZmp-14" edge="1">
          <mxGeometry width="50" height="50" relative="1" as="geometry">
            <mxPoint x="515" y="435" as="sourcePoint" />
            <mxPoint x="623.0169999999998" y="759.9418500000002" as="targetPoint" />
          </mxGeometry>
        </mxCell>
        <mxCell id="c-izNFsfGQeIOeLridTj-28" value="&lt;span style=&quot;background-color: transparent; color: light-dark(rgb(0, 0, 0), rgb(255, 255, 255));&quot;&gt;通知メッセージのみ送信&lt;/span&gt;" style="text;html=1;align=center;verticalAlign=middle;whiteSpace=wrap;rounded=0;" parent="RypAzTI1GGBVqlFzvrsD-67" vertex="1">
          <mxGeometry x="479" y="518" width="136" height="30" as="geometry" />
        </mxCell>
        <mxCell id="c-izNFsfGQeIOeLridTj-29" value="Flask" style="text;html=1;align=center;verticalAlign=middle;whiteSpace=wrap;rounded=0;" parent="RypAzTI1GGBVqlFzvrsD-67" vertex="1">
          <mxGeometry x="550" y="428" width="60" height="30" as="geometry" />
        </mxCell>
        <mxCell id="TFv_mAHMPr5hv66xB09B-2" value="メッセージキュー登録" style="text;html=1;align=center;verticalAlign=middle;whiteSpace=wrap;rounded=0;" parent="RypAzTI1GGBVqlFzvrsD-67" vertex="1">
          <mxGeometry x="360" y="439" width="101" height="30" as="geometry" />
        </mxCell>
        <mxCell id="TFv_mAHMPr5hv66xB09B-4" value="" style="group" parent="RypAzTI1GGBVqlFzvrsD-67" vertex="1" connectable="0">
          <mxGeometry x="365" y="477" width="69" height="97" as="geometry" />
        </mxCell>
        <mxCell id="TFv_mAHMPr5hv66xB09B-1" value="" style="sketch=0;points=[[0,0,0],[0.25,0,0],[0.5,0,0],[0.75,0,0],[1,0,0],[0,1,0],[0.25,1,0],[0.5,1,0],[0.75,1,0],[1,1,0],[0,0.25,0],[0,0.5,0],[0,0.75,0],[1,0.25,0],[1,0.5,0],[1,0.75,0]];outlineConnect=0;fontColor=#232F3E;fillColor=#E7157B;strokeColor=#ffffff;dashed=0;verticalLabelPosition=bottom;verticalAlign=top;align=center;html=1;fontSize=12;fontStyle=0;aspect=fixed;shape=mxgraph.aws4.resourceIcon;resIcon=mxgraph.aws4.sqs;" parent="TFv_mAHMPr5hv66xB09B-4" vertex="1">
          <mxGeometry width="69" height="69" as="geometry" />
        </mxCell>
        <mxCell id="TFv_mAHMPr5hv66xB09B-3" value="AWS SQS" style="text;html=1;align=center;verticalAlign=middle;whiteSpace=wrap;rounded=0;" parent="TFv_mAHMPr5hv66xB09B-4" vertex="1">
          <mxGeometry x="2" y="67" width="60" height="30" as="geometry" />
        </mxCell>
        <mxCell id="TFv_mAHMPr5hv66xB09B-7" value="" style="endArrow=classic;html=1;rounded=0;entryX=0.5;entryY=0;entryDx=0;entryDy=0;entryPerimeter=0;" parent="RypAzTI1GGBVqlFzvrsD-67" target="TFv_mAHMPr5hv66xB09B-5" edge="1">
          <mxGeometry width="50" height="50" relative="1" as="geometry">
            <mxPoint x="398" y="567" as="sourcePoint" />
            <mxPoint x="689" y="483" as="targetPoint" />
          </mxGeometry>
        </mxCell>
        <mxCell id="TFv_mAHMPr5hv66xB09B-8" value="メッセージキュー取得" style="text;html=1;align=center;verticalAlign=middle;whiteSpace=wrap;rounded=0;" parent="RypAzTI1GGBVqlFzvrsD-67" vertex="1">
          <mxGeometry x="291" y="580" width="103" height="30" as="geometry" />
        </mxCell>
        <mxCell id="TFv_mAHMPr5hv66xB09B-10" value="" style="group" parent="RypAzTI1GGBVqlFzvrsD-67" vertex="1" connectable="0">
          <mxGeometry x="365" y="616" width="67" height="97" as="geometry" />
        </mxCell>
        <mxCell id="TFv_mAHMPr5hv66xB09B-5" value="" style="sketch=0;points=[[0,0,0],[0.25,0,0],[0.5,0,0],[0.75,0,0],[1,0,0],[0,1,0],[0.25,1,0],[0.5,1,0],[0.75,1,0],[1,1,0],[0,0.25,0],[0,0.5,0],[0,0.75,0],[1,0.25,0],[1,0.5,0],[1,0.75,0]];outlineConnect=0;fontColor=#232F3E;fillColor=#ED7100;strokeColor=#ffffff;dashed=0;verticalLabelPosition=bottom;verticalAlign=top;align=center;html=1;fontSize=12;fontStyle=0;aspect=fixed;shape=mxgraph.aws4.resourceIcon;resIcon=mxgraph.aws4.lambda;" parent="TFv_mAHMPr5hv66xB09B-10" vertex="1">
          <mxGeometry width="67" height="67" as="geometry" />
        </mxCell>
        <mxCell id="TFv_mAHMPr5hv66xB09B-9" value="AWS&lt;div&gt;Lambdaa&lt;/div&gt;" style="text;html=1;align=center;verticalAlign=middle;whiteSpace=wrap;rounded=0;" parent="TFv_mAHMPr5hv66xB09B-10" vertex="1">
          <mxGeometry x="3.5" y="67" width="60" height="30" as="geometry" />
        </mxCell>
        <mxCell id="c-izNFsfGQeIOeLridTj-27" value="メール&lt;div&gt;送信&lt;/div&gt;" style="text;html=1;align=center;verticalAlign=middle;whiteSpace=wrap;rounded=0;" parent="RypAzTI1GGBVqlFzvrsD-67" vertex="1">
          <mxGeometry x="399" y="748" width="60" height="30" as="geometry" />
        </mxCell>
        <mxCell id="MBX3HaWTPkMvfYFKgZmp-2" value="" style="aspect=fixed;sketch=0;html=1;dashed=0;whitespace=wrap;verticalLabelPosition=bottom;verticalAlign=top;fillColor=#2875E2;strokeColor=#ffffff;points=[[0.005,0.63,0],[0.1,0.2,0],[0.9,0.2,0],[0.5,0,0],[0.995,0.63,0],[0.72,0.99,0],[0.5,1,0],[0.28,0.99,0]];shape=mxgraph.kubernetes.icon2;kubernetesLabel=1;prIcon=api" vertex="1" parent="RypAzTI1GGBVqlFzvrsD-67">
          <mxGeometry x="220.5" y="736" width="34.38" height="33" as="geometry" />
        </mxCell>
        <mxCell id="MBX3HaWTPkMvfYFKgZmp-1" value="ブログ API" style="text;html=1;align=center;verticalAlign=middle;whiteSpace=wrap;rounded=0;" vertex="1" parent="RypAzTI1GGBVqlFzvrsD-67">
          <mxGeometry x="211" y="769" width="74" height="30" as="geometry" />
        </mxCell>
        <mxCell id="MBX3HaWTPkMvfYFKgZmp-3" value="" style="group" vertex="1" connectable="0" parent="RypAzTI1GGBVqlFzvrsD-67">
          <mxGeometry x="487" y="946" width="69" height="134.54999999999995" as="geometry" />
        </mxCell>
        <mxCell id="MBX3HaWTPkMvfYFKgZmp-4" value="" style="verticalLabelPosition=bottom;verticalAlign=top;html=1;shadow=0;dashed=0;strokeWidth=1;shape=mxgraph.android.phone2;strokeColor=#c0c0c0;" vertex="1" parent="MBX3HaWTPkMvfYFKgZmp-3">
          <mxGeometry width="69" height="134.55" as="geometry" />
        </mxCell>
        <mxCell id="MBX3HaWTPkMvfYFKgZmp-5" value="LINE" style="text;html=1;align=center;verticalAlign=middle;whiteSpace=wrap;rounded=0;" vertex="1" parent="MBX3HaWTPkMvfYFKgZmp-3">
          <mxGeometry x="5" y="59" width="60" height="30" as="geometry" />
        </mxCell>
        <mxCell id="MBX3HaWTPkMvfYFKgZmp-6" value="" style="endArrow=classic;html=1;rounded=0;entryX=0.478;entryY=-0.03;entryDx=0;entryDy=0;entryPerimeter=0;" edge="1" parent="RypAzTI1GGBVqlFzvrsD-67" source="MBX3HaWTPkMvfYFKgZmp-10" target="MBX3HaWTPkMvfYFKgZmp-4">
          <mxGeometry width="50" height="50" relative="1" as="geometry">
            <mxPoint x="565.5" y="831" as="sourcePoint" />
            <mxPoint x="615.5" y="781" as="targetPoint" />
          </mxGeometry>
        </mxCell>
        <mxCell id="MBX3HaWTPkMvfYFKgZmp-7" value="LINEに&lt;br&gt;&lt;div&gt;通知&lt;/div&gt;" style="text;html=1;align=center;verticalAlign=middle;whiteSpace=wrap;rounded=0;" vertex="1" parent="RypAzTI1GGBVqlFzvrsD-67">
          <mxGeometry x="517" y="883" width="60" height="30" as="geometry" />
        </mxCell>
        <mxCell id="MBX3HaWTPkMvfYFKgZmp-8" value="" style="group" vertex="1" connectable="0" parent="RypAzTI1GGBVqlFzvrsD-67">
          <mxGeometry x="492.5" y="799" width="51.33" height="71" as="geometry" />
        </mxCell>
        <mxCell id="MBX3HaWTPkMvfYFKgZmp-9" value="" style="verticalLabelPosition=bottom;aspect=fixed;html=1;shape=mxgraph.salesforce.bots;" vertex="1" parent="MBX3HaWTPkMvfYFKgZmp-8">
          <mxGeometry width="51.325301204819276" height="48.75903614457831" as="geometry" />
        </mxCell>
        <mxCell id="MBX3HaWTPkMvfYFKgZmp-10" value="LINE Bot" style="text;html=1;align=center;verticalAlign=middle;whiteSpace=wrap;rounded=0;" vertex="1" parent="MBX3HaWTPkMvfYFKgZmp-8">
          <mxGeometry y="45.33734939759036" width="51.33" height="25.662650602409638" as="geometry" />
        </mxCell>
        <mxCell id="MBX3HaWTPkMvfYFKgZmp-16" value="" style="endArrow=classic;html=1;rounded=0;exitX=0.5;exitY=1;exitDx=0;exitDy=0;" edge="1" parent="RypAzTI1GGBVqlFzvrsD-67">
          <mxGeometry width="50" height="50" relative="1" as="geometry">
            <mxPoint x="634" y="858" as="sourcePoint" />
            <mxPoint x="636" y="942" as="targetPoint" />
          </mxGeometry>
        </mxCell>
        <mxCell id="c-izNFsfGQeIOeLridTj-10" value="" style="endArrow=classic;html=1;rounded=0;" parent="1" target="TFv_mAHMPr5hv66xB09B-1" edge="1">
          <mxGeometry width="50" height="50" relative="1" as="geometry">
            <mxPoint x="738" y="437" as="sourcePoint" />
            <mxPoint x="686" y="552" as="targetPoint" />
          </mxGeometry>
        </mxCell>
        <mxCell id="c-izNFsfGQeIOeLridTj-30" value="" style="shape=image;html=1;verticalAlign=top;verticalLabelPosition=bottom;labelBackgroundColor=#ffffff;imageAspect=0;aspect=fixed;image=https://cdn2.iconfinder.com/data/icons/social-media-2189/48/21-Gmail-128.png" parent="1" vertex="1">
          <mxGeometry x="623" y="821" width="77" height="77" as="geometry" />
        </mxCell>
        <mxCell id="TFv_mAHMPr5hv66xB09B-6" value="" style="endArrow=classic;html=1;rounded=0;" parent="1" target="c-izNFsfGQeIOeLridTj-30" edge="1">
          <mxGeometry width="50" height="50" relative="1" as="geometry">
            <mxPoint x="661" y="711" as="sourcePoint" />
            <mxPoint x="622" y="650" as="targetPoint" />
          </mxGeometry>
        </mxCell>
        <mxCell id="RypAzTI1GGBVqlFzvrsD-74" value="" style="group" parent="1" vertex="1" connectable="0">
          <mxGeometry x="440.99999999999994" y="813.0000000000001" width="74" height="88.45999999999992" as="geometry" />
        </mxCell>
        <mxCell id="RypAzTI1GGBVqlFzvrsD-72" value="" style="verticalLabelPosition=bottom;aspect=fixed;html=1;shape=mxgraph.salesforce.web;" parent="RypAzTI1GGBVqlFzvrsD-74" vertex="1">
          <mxGeometry width="74" height="58.46" as="geometry" />
        </mxCell>
        <mxCell id="RypAzTI1GGBVqlFzvrsD-73" value="&lt;font style=&quot;color: rgb(44, 45, 49);&quot;&gt;microCMS&lt;/font&gt;" style="text;html=1;align=center;verticalAlign=middle;whiteSpace=wrap;rounded=0;" parent="RypAzTI1GGBVqlFzvrsD-74" vertex="1">
          <mxGeometry x="7" y="58.45999999999992" width="60" height="30" as="geometry" />
        </mxCell>
        <mxCell id="RypAzTI1GGBVqlFzvrsD-75" value="" style="endArrow=classic;html=1;rounded=0;entryX=0.277;entryY=0.594;entryDx=0;entryDy=0;entryPerimeter=0;exitX=0.411;exitY=0.042;exitDx=0;exitDy=0;exitPerimeter=0;" parent="1" source="RypAzTI1GGBVqlFzvrsD-72" target="RypAzTI1GGBVqlFzvrsD-65" edge="1">
          <mxGeometry width="50" height="50" relative="1" as="geometry">
            <mxPoint x="471" y="665" as="sourcePoint" />
            <mxPoint x="469" y="485" as="targetPoint" />
          </mxGeometry>
        </mxCell>
        <mxCell id="MBX3HaWTPkMvfYFKgZmp-11" value="" style="group" vertex="1" connectable="0" parent="1">
          <mxGeometry x="856" y="946" width="69" height="134.55000000000007" as="geometry" />
        </mxCell>
        <mxCell id="MBX3HaWTPkMvfYFKgZmp-12" value="" style="verticalLabelPosition=bottom;verticalAlign=top;html=1;shadow=0;dashed=0;strokeWidth=1;shape=mxgraph.android.phone2;strokeColor=#c0c0c0;" vertex="1" parent="MBX3HaWTPkMvfYFKgZmp-11">
          <mxGeometry x="7.5" width="69" height="134.55" as="geometry" />
        </mxCell>
        <mxCell id="MBX3HaWTPkMvfYFKgZmp-13" value="Discord" style="text;html=1;align=center;verticalAlign=middle;whiteSpace=wrap;rounded=0;" vertex="1" parent="MBX3HaWTPkMvfYFKgZmp-11">
          <mxGeometry x="12" y="58.00000000000003" width="60" height="30" as="geometry" />
        </mxCell>
        <mxCell id="MBX3HaWTPkMvfYFKgZmp-14" value="Discord&lt;div&gt;Webhook&lt;/div&gt;" style="rounded=0;whiteSpace=wrap;html=1;" vertex="1" parent="1">
          <mxGeometry x="854" y="813" width="84" height="42" as="geometry" />
        </mxCell>
        <mxCell id="MBX3HaWTPkMvfYFKgZmp-15" value="Discordに&lt;br&gt;&lt;div&gt;通知&lt;/div&gt;" style="text;html=1;align=center;verticalAlign=middle;whiteSpace=wrap;rounded=0;" vertex="1" parent="1">
          <mxGeometry x="900" y="885.5" width="60" height="30" as="geometry" />
        </mxCell>
        <mxCell id="MBX3HaWTPkMvfYFKgZmp-17" value="" style="aspect=fixed;sketch=0;html=1;dashed=0;whitespace=wrap;verticalLabelPosition=bottom;verticalAlign=top;fillColor=#2875E2;strokeColor=#ffffff;points=[[0.005,0.63,0],[0.1,0.2,0],[0.9,0.2,0],[0.5,0,0],[0.995,0.63,0],[0.72,0.99,0],[0.5,1,0],[0.28,0.99,0]];shape=mxgraph.kubernetes.icon2;kubernetesLabel=1;prIcon=api" vertex="1" parent="1">
          <mxGeometry x="789" y="730" width="34.38" height="33" as="geometry" />
        </mxCell>
        <mxCell id="MBX3HaWTPkMvfYFKgZmp-18" value="LINE&lt;div&gt;Message API&lt;/div&gt;" style="text;html=1;align=center;verticalAlign=middle;whiteSpace=wrap;rounded=0;" vertex="1" parent="1">
          <mxGeometry x="788" y="765" width="82" height="30" as="geometry" />
        </mxCell>
      </root>
    </mxGraphModel>
  </diagram>
</mxfile>
